<svg width="31" height="30" viewBox="0 0 31 30" fill="none" xmlns="http://www.w3.org/2000/svg">
<path d="M15.2813 0C12.3145 0 9.41444 0.879734 6.9477 2.52796C4.48097 4.17618 2.55838 6.51886 1.42306 9.25975C0.287749 12.0006 -0.00930062 15.0166 0.569478 17.9263C1.14826 20.8361 2.57687 23.5088 4.67465 25.6066C6.77244 27.7044 9.44518 29.133 12.3549 29.7118C15.2646 30.2905 18.2806 29.9935 21.0215 28.8582C23.7624 27.7229 26.1051 25.8003 27.7533 23.3335C29.4015 20.8668 30.2812 17.9667 30.2812 15C30.2769 11.0231 28.6951 7.21032 25.883 4.39822C23.0709 1.58612 19.2582 0.00436739 15.2813 0ZM15.2813 28.8C12.5519 28.8 9.88378 27.9906 7.61439 26.4743C5.34499 24.9579 3.57621 22.8026 2.53172 20.281C1.48723 17.7594 1.21394 14.9847 1.74642 12.3077C2.2789 9.63081 3.59322 7.17189 5.52318 5.24192C7.45315 3.31196 9.91207 1.99764 12.589 1.46516C15.2659 0.932687 18.0407 1.20597 20.5623 2.25046C23.0839 3.29495 25.2392 5.06373 26.7555 7.33313C28.2719 9.60253 29.0812 12.2706 29.0812 15C29.0773 18.6588 27.6221 22.1665 25.0349 24.7537C22.4478 27.3408 18.94 28.796 15.2813 28.8ZM24.2812 15C24.2812 15.1591 24.218 15.3117 24.1055 15.4243C23.993 15.5368 23.8404 15.6 23.6813 15.6H15.2813C15.1221 15.6 14.9695 15.5368 14.857 15.4243C14.7445 15.3117 14.6813 15.1591 14.6813 15V6.6C14.6813 6.44087 14.7445 6.28826 14.857 6.17573C14.9695 6.06321 15.1221 6 15.2813 6C15.4404 6 15.593 6.06321 15.7055 6.17573C15.818 6.28826 15.8813 6.44087 15.8813 6.6V14.4H23.6813C23.8404 14.4 23.993 14.4632 24.1055 14.5757C24.218 14.6883 24.2812 14.8409 24.2812 15Z" fill="white"/>
</svg>
