<svg width="31" height="24" viewBox="0 0 31 24" fill="none" xmlns="http://www.w3.org/2000/svg">
<path d="M26.8068 0H4.35583C3.35476 0 2.3947 0.397673 1.68683 1.10554C0.978972 1.8134 0.581299 2.77347 0.581299 3.77453V20.1862C0.581299 21.1873 0.978972 22.1473 1.68683 22.8552C2.3947 23.5631 3.35476 23.9607 4.35583 23.9607H26.8068C27.8078 23.9607 28.7679 23.5631 29.4758 22.8552C30.1836 22.1473 30.5813 21.1873 30.5813 20.1862V3.77453C30.5813 2.77347 30.1836 1.8134 29.4758 1.10554C28.7679 0.397673 27.8078 0 26.8068 0ZM4.35583 1.50981H26.8068C27.3782 1.50817 27.9289 1.72422 28.3468 2.11406C28.7647 2.50389 29.0184 3.03824 29.0564 3.60845C25.3271 5.60141 21.5828 7.57927 17.8385 9.57222C17.3319 9.88967 16.796 10.1576 16.2381 10.3724C15.8001 10.4589 15.3487 10.4511 14.914 10.3495C14.4792 10.248 14.0711 10.0551 13.7167 9.78359C11.5727 8.65123 9.42881 7.50377 7.29997 6.37141C5.57878 5.46553 3.8274 4.54454 2.10621 3.62355C2.14123 3.05091 2.39356 2.51323 2.81167 2.12038C3.22979 1.72752 3.78212 1.50913 4.35583 1.50981ZM29.0715 20.1862C29.0715 20.7869 28.8329 21.3629 28.4082 21.7876C27.9834 22.2123 27.4074 22.4509 26.8068 22.4509H4.35583C3.75519 22.4509 3.17915 22.2123 2.75443 21.7876C2.32972 21.3629 2.09111 20.7869 2.09111 20.1862V5.33719C5.65427 7.20936 9.20234 9.11173 12.7655 10.999C13.4021 11.3893 14.0874 11.6939 14.8037 11.9049C15.8521 12.0753 16.9266 11.8551 17.8234 11.2859C20.0126 10.1384 22.1867 8.97584 24.376 7.82838C25.9462 6.98289 27.5013 6.16759 29.0715 5.33719V20.1862Z" fill="white"/>
</svg>
