<svg width="30" height="30" viewBox="0 0 30 30" fill="none" xmlns="http://www.w3.org/2000/svg">
<path d="M28.8723 20.9577L21.4941 17.6561C21.208 17.5323 20.8957 17.4818 20.5852 17.5091C20.2747 17.5363 19.976 17.6406 19.7159 17.8123C19.6951 17.8255 19.6753 17.8401 19.6565 17.8561L15.7815 21.1593C15.6953 21.2119 15.5974 21.2424 15.4965 21.2481C15.3957 21.2538 15.295 21.2346 15.2034 21.1921C12.6658 19.9671 10.0392 17.3608 8.8142 14.8529C8.77087 14.762 8.75075 14.6617 8.75566 14.5611C8.76057 14.4605 8.79035 14.3627 8.84233 14.2764L12.1549 10.3373C12.1705 10.3185 12.1846 10.2982 12.1986 10.2779C12.3699 10.0182 12.4738 9.71999 12.5011 9.41012C12.5284 9.10026 12.4781 8.78848 12.3549 8.50286L9.04702 1.13716C8.88732 0.7641 8.61091 0.452919 8.25929 0.250344C7.90767 0.0477685 7.49982 -0.0352668 7.09699 0.0137073C5.13067 0.27296 3.32595 1.23913 2.01993 2.73176C0.713915 4.22439 -0.00409373 6.1414 1.75584e-05 8.12474C1.75584e-05 20.1874 9.81265 30 21.8753 30C23.8587 30.0041 25.7757 29.2861 27.2683 27.9801C28.7609 26.6741 29.7271 24.8693 29.9864 22.903C30.035 22.502 29.9528 22.0961 29.7521 21.7455C29.5513 21.395 29.2428 21.1187 28.8723 20.9577ZM28.7504 22.7468C28.5298 24.412 27.7102 25.9399 26.4448 27.0448C25.1795 28.1496 23.5551 28.7558 21.8753 28.75C10.5033 28.75 1.25003 19.4967 1.25003 8.12474C1.24422 6.44495 1.8504 4.82054 2.95526 3.55522C4.06011 2.28991 5.58799 1.47031 7.25324 1.24966C7.27822 1.24811 7.30327 1.24811 7.32824 1.24966C7.45155 1.25071 7.57178 1.28821 7.67382 1.35744C7.77586 1.42667 7.85514 1.52454 7.90169 1.63873L11.2002 9.00443C11.2387 9.09446 11.2555 9.19226 11.2492 9.28997C11.243 9.38767 11.2139 9.48255 11.1642 9.56694L7.85325 13.5045C7.83763 13.5248 7.822 13.5435 7.80794 13.5654C7.63154 13.8352 7.52766 14.1458 7.50631 14.4674C7.48496 14.789 7.54687 15.1107 7.68606 15.4014C9.04389 18.1811 11.8439 20.9608 14.6549 22.3186C14.9476 22.4569 15.2711 22.5171 15.5939 22.4933C15.9167 22.4695 16.2279 22.3625 16.4971 22.1827L16.5549 22.139L20.4347 18.8389C20.5177 18.7882 20.6115 18.758 20.7085 18.7506C20.8055 18.7433 20.9028 18.7591 20.9925 18.7967L28.3692 22.103C28.4936 22.1548 28.598 22.2455 28.6668 22.3615C28.7355 22.4776 28.7648 22.6127 28.7504 22.7468Z" fill="white"/>
</svg>
