<svg width="48" height="48" viewBox="0 0 48 48" fill="none" xmlns="http://www.w3.org/2000/svg">
<path d="M40.8301 8.47998C41.9701 8.47998 42.8301 9.47998 42.3701 11.34L36.7901 37.64C36.4001 39.51 35.2701 39.96 33.7101 39.09L20.4001 29.26C20.3485 29.2229 20.3064 29.1742 20.2774 29.1176C20.2484 29.0611 20.2333 28.9985 20.2333 28.935C20.2333 28.8715 20.2484 28.8088 20.2774 28.7523C20.3064 28.6958 20.3485 28.647 20.4001 28.61L35.7701 14.73C36.4701 14.11 35.6201 13.81 34.7001 14.37L15.4101 26.54C15.3516 26.5781 15.2852 26.6025 15.2159 26.6111C15.1466 26.6198 15.0762 26.6126 15.0101 26.59L6.82009 24C5.00009 23.47 5.00009 22.22 7.23009 21.33L40.0001 8.68998C40.26 8.5653 40.5422 8.4939 40.8301 8.47998Z" stroke="white" stroke-opacity="0.5" stroke-linecap="round" stroke-linejoin="round"/>
</svg>
