<svg width="48" height="48" viewBox="0 0 48 48" fill="none" xmlns="http://www.w3.org/2000/svg">
<path d="M43.112 14.3941C42.8841 13.5473 42.4378 12.7753 41.8178 12.1553C41.1978 11.5352 40.4257 11.0889 39.579 10.8611C37.265 9.96707 14.847 9.52907 8.343 10.8861C7.49615 11.114 6.72405 11.5605 6.104 12.1807C5.48396 12.8009 5.03773 13.5732 4.81 14.4201C3.765 19.0031 3.686 28.9111 4.836 33.5971C5.06388 34.4438 5.51018 35.2158 6.13021 35.8358C6.75025 36.4559 7.52227 36.9022 8.369 37.1301C12.952 38.1851 34.74 38.3331 39.605 37.1301C40.4517 36.9022 41.2238 36.4559 41.8438 35.8358C42.4638 35.2158 42.9101 34.4438 43.138 33.5971C44.252 28.6041 44.331 19.3101 43.112 14.3941Z" stroke="white" stroke-opacity="0.5" stroke-linecap="round" stroke-linejoin="round"/>
<path d="M30.5671 23.9949L20.1201 18.0039V29.9859L30.5671 23.9949Z" stroke="white" stroke-opacity="0.5" stroke-linecap="round" stroke-linejoin="round"/>
</svg>
